<svg xmlns="http://www.w3.org/2000/svg" width="32" height="32" fill="none">
  <path fill="#e8eeff" d="M0 0h32v32H0z"/>
  <path fill="#f6cc90" d="M5 29c0-.02 3.276-3 11-3 7.503 0 11 2.98 11 3z"/>
  <path fill="#f0c17f" d="M16.343 26q-.696 0-1.343.033c6.368.325 9.349 2.95 9.349 2.967H27c0-.02-3.388-3-10.657-3"/>
  <path fill="#c5e866" d="M20.758 7.18C19.974 9.586 17.863 10 17.863 10s-1.398-1.773-.635-4.117C18.03 3.414 20.142 3 20.142 3s1.41 1.742.616 4.18"/>
  <path fill="#b2d94b" d="M20.012 3s-.643.11-1.394.551c.413.7.924 2.01.317 3.629A4.38 4.38 0 0 1 17 9.452c.206.35.386.548.386.548s2.432-.414 3.335-2.82c.914-2.438-.71-4.18-.71-4.18"/>
  <path fill="#9cc042" d="M18.687 18.935c-1.466.184-2.545-.08-2.545-.08s-.933-3.306 1.983-5.889c3.072-2.72 6.727-1.825 6.727-1.825s.801 2.698-1.323 5.206"/>
  <path fill="#85aa18" d="M24.856 11.141s-.952-.24-2.284-.094c.36.041.57.094.57.094s.778 2.698-1.285 5.206l-4.703 2.588-.154.018c.444.05 1.102.081 1.869-.018l4.702-2.588c2.064-2.508 1.285-5.206 1.285-5.206"/>
  <path fill="#c5e866" d="M12.706 17.162c2.73 1.88 2.264 4.573 2.264 4.573s-2.947.986-5.606-.845c-2.8-1.928-2.335-4.622-2.335-4.622s2.912-1.01 5.677.894"/>
  <path fill="#9cc042" d="M9.553 13.423c2.507 3.07 6.096 2.542 6.096 2.542s1.31-3.319-1.133-6.31c-2.573-3.15-6.162-2.622-6.162-2.622s-1.342 3.28 1.199 6.39"/>
  <path fill="#c5e866" d="M22.76 21.034c-2.405 1.782-4.757.554-4.757.554s-.168-2.848 2.174-4.584c2.467-1.828 4.82-.6 4.82-.6s.198 2.824-2.238 4.63"/>
  <path fill="#b2d94b" d="M24.996 16.403s-1.22-.64-2.824-.307c.585.119.945.307.945.307s.197 2.825-2.227 4.63a4.8 4.8 0 0 1-1.89.87c.904.185 2.327.204 3.77-.87 2.424-1.805 2.226-4.63 2.226-4.63"/>
  <path fill="#060606" d="M26.698 28.19c-.769-.532-1.645-.927-2.52-1.257-1.577-.595-4.203-1.3-7.839-1.341.06-.493.199-1.2.527-1.989a7.6 7.6 0 0 1 1.318-2.117c.259.105.926.334 1.798.334.808 0 1.79-.197 2.786-.871 2.362-1.6 2.2-4.07 2.192-4.175a.38.38 0 0 0-.217-.314 4 4 0 0 0-.903-.278c.433-.667.751-1.39.947-2.157.122-.477-.632-.661-.754-.185a6.5 6.5 0 0 1-1.065 2.245c-.841-.02-1.898.168-2.98.901a4.76 4.76 0 0 0-1.626 1.848 7 7 0 0 1-1.665.006c.79-1.044 2.848-3.573 5.165-4.895.433-.247.042-.905-.391-.658-2.255 1.286-4.217 3.574-5.163 4.79-.055-1.186.155-3.277 1.936-5.028 1.16-1.14 2.542-1.802 4.106-1.965a6.7 6.7 0 0 1 1.804.054c.035.198.078.52.085.922.008.487.786.481.777-.013-.014-.79-.15-1.305-.155-1.326a.39.39 0 0 0-.272-.27c-.04-.01-.971-.259-2.286-.128-1.21.12-2.992.598-4.61 2.188a8 8 0 0 0-.38.403c.218-.658.457-1.37.7-2.087.704-.21 2.442-.932 3.19-3.054.936-2.665-.683-4.56-.752-4.64a.39.39 0 0 0-.366-.127c-.104.02-2.563.495-3.512 3.194-.789 2.242.335 3.993.678 4.455-.227.667-.448 1.329-.652 1.945a7.1 7.1 0 0 0-1.5-3.403C13.685 7.43 11.973 6.75 10.786 6.49 9.495 6.206 8.54 6.344 8.5 6.35a.39.39 0 0 0-.303.237c-.01.027-.268.678-.356 1.676-.043.49.731.555.774.066.05-.563.16-1.001.233-1.246.334-.02.997-.023 1.799.156 1.533.344 2.826 1.16 3.841 2.429a6.33 6.33 0 0 1 1.418 4.142 7 7 0 0 1-.137 1.281c-1.537-2.806-3.714-4.961-3.81-5.055-.353-.348-.904.19-.55.537.023.023 2.267 2.247 3.753 5.023a7 7 0 0 1-1.303-.155c-1.522-.33-2.794-1.123-3.782-2.356a6.66 6.66 0 0 1-1.353-2.833c-.1-.482-.862-.331-.762.15.234 1.139.74 2.2 1.504 3.153a7.36 7.36 0 0 0 4.26 2.637 7.5 7.5 0 0 0 1.795.165v6.413a8 8 0 0 0-.377-.704c.053-.451.244-3.11-2.242-5.03-2.698-2.084-5.507-1.027-5.625-.981a.38.38 0 0 0-.241.297c-.019.123-.432 3.033 2.3 5.143a5.85 5.85 0 0 0 3.632 1.236c.674 0 1.227-.108 1.565-.196q.81 1.392.957 3.06c-2.011.033-3.888.26-5.584.675-.486.119-.298.858.188.739 1.645-.403 3.468-.622 5.427-.653v.875c0 .492.777.492.777 0v-.877c4.584.044 7.513 1.144 8.97 1.884H6.712a13 13 0 0 1 1.457-.642c.469-.174.193-.887-.276-.712-.968.36-1.657.727-2.065.97C5 28.35 5 28.469 5 28.62c0 .21.174.381.389.381h21.244c.59 0 .358-.608.065-.81m-6.269-10.577c1.64-1.111 3.198-.745 3.758-.553a4.12 4.12 0 0 1-1.861 3.262c-1.47.996-2.9.757-3.552.562q1.15-1.055 2.79-1.745c.462-.193.156-.893-.305-.7a10.6 10.6 0 0 0-2.471 1.436c.202-.707.65-1.59 1.641-2.262m-2.931 2.037q.262 0 .554-.02a5 5 0 0 0-.195 1.087 8.4 8.4 0 0 0-1.559 2.255v-3.419c.273.046.688.097 1.2.097m-.19-13.201A4.14 4.14 0 0 1 20 3.814a4.09 4.09 0 0 1 .467 3.71 4.04 4.04 0 0 1-2.133 2.366c.505-1.462 1.003-2.847 1.365-3.716.19-.455-.53-.743-.72-.288-.377.907-.891 2.336-1.407 3.832-.354-.663-.764-1.85-.265-3.27M9.815 20.897c-.99-.766-1.63-1.74-1.901-2.896a5 5 0 0 1-.129-1.308c.663-.182 2.694-.558 4.635.94.963.745 1.584 1.704 1.844 2.85q.056.252.084.474a9 9 0 0 0-.776-.808c-1.34-1.233-2.672-1.749-2.728-1.77-.467-.179-.749.531-.282.71.013.004 1.246.483 2.478 1.616q.59.543 1.041 1.15c-.861.172-2.632.304-4.266-.958"/>
</svg>
