<svg xmlns="http://www.w3.org/2000/svg" width="199" height="30" fill="none">
  <g clip-path="url(#a)">
    <path fill="#F6CC90" d="M2.99 29.447c0-.02 3.562-3.044 11.965-3.044 8.161 0 11.965 3.025 11.965 3.044H2.99Z"/>
    <path fill="#F0C17F" d="M14.954 26.403c-.52 0-1.023.012-1.508.034 7.15.33 10.497 2.992 10.497 3.01h2.977c0-.02-3.804-3.044-11.966-3.044Z"/>
    <path fill="#C5E866" d="M20.388 5.343c-.974 2.824-3.597 3.31-3.597 3.31S15.053 6.572 16 3.821C17 .924 19.623.438 19.623.438s1.751 2.044.765 4.905Z"/>
    <path fill="#B2D94B" d="M19.624.438s-.694.128-1.503.647c.445.82.996 2.36.341 4.258a5.032 5.032 0 0 1-2.087 2.667c.223.41.416.643.416.643s2.624-.486 3.598-3.31c.986-2.86-.765-4.905-.765-4.905Z"/>
    <path fill="#9CC042" d="M17.773 18.62c-1.6.227-2.777-.1-2.777-.1s-1.018-4.086 2.164-7.278c3.352-3.363 7.34-2.256 7.34-2.256s.875 3.335-1.443 6.434"/>
    <path fill="#85AA18" d="M24.5 8.986s-1.07-.297-2.567-.116c.404.05.64.116.64.116s.875 3.335-1.444 6.434l-5.284 3.2a8.283 8.283 0 0 1-.173.022c.498.061 1.238.1 2.1-.023l5.284-3.199c2.318-3.1 1.443-6.434 1.443-6.434Z"/>
    <path fill="#C5E866" d="M11.182 16.476c2.839 2.238 2.354 5.445 2.354 5.445s-3.065 1.173-5.83-1.006c-2.912-2.296-2.428-5.503-2.428-5.503s3.029-1.202 5.904 1.064Z"/>
    <path fill="#9CC042" d="M7.926 11.862c2.858 3.642 6.949 3.015 6.949 3.015s1.492-3.937-1.292-7.484c-2.932-3.736-7.023-3.11-7.023-3.11s-1.53 3.89 1.366 7.579Z"/>
    <path fill="#C5E866" d="M22.317 20.27c-2.452 1.696-4.852.528-4.852.528s-.17-2.71 2.218-4.362c2.516-1.74 4.916-.571 4.916-.571s.203 2.688-2.282 4.405Z"/>
    <path fill="#B2D94B" d="M24.6 15.865s-1.251-.61-2.894-.293c.6.113.968.293.968.293s.202 2.687-2.282 4.405a5.1 5.1 0 0 1-1.937.828 5.024 5.024 0 0 0 3.863-.828c2.484-1.718 2.282-4.405 2.282-4.405Z"/>
    <path fill="#060606" d="M26.992 28.953c-.865-.61-1.852-1.065-2.837-1.444-1.778-.684-4.735-1.495-8.831-1.541.066-.567.224-1.38.593-2.287.367-.9.863-1.712 1.485-2.433.292.12 1.043.384 2.026.384.91 0 2.016-.226 3.138-1.002 2.66-1.839 2.478-4.678 2.47-4.798a.438.438 0 0 0-.245-.361 4.566 4.566 0 0 0-1.017-.32 8.382 8.382 0 0 0 1.066-2.479c.137-.548-.712-.76-.85-.212a7.524 7.524 0 0 1-1.199 2.58c-.948-.022-2.138.193-3.358 1.036a5.441 5.441 0 0 0-1.83 2.124 7.637 7.637 0 0 1-1.876.007c.89-1.2 3.208-4.108 5.818-5.626.488-.284.048-1.041-.44-.757-2.54 1.478-4.751 4.108-5.816 5.505-.062-1.363.174-3.766 2.18-5.779 1.308-1.311 2.864-2.071 4.625-2.258a7.34 7.34 0 0 1 2.034.061c.038.229.086.598.094 1.06.01.56.886.553.876-.014-.016-.909-.169-1.5-.175-1.524a.438.438 0 0 0-.306-.311c-.044-.012-1.094-.297-2.575-.147-1.363.138-3.37.687-5.193 2.515a8.627 8.627 0 0 0-.428.463c.246-.757.514-1.575.788-2.399a5.487 5.487 0 0 0 3.593-3.51c1.055-3.063-.768-5.242-.847-5.333a.437.437 0 0 0-.412-.146c-.117.022-2.886.568-3.956 3.671-.889 2.577.377 4.59.764 5.12-.255.768-.504 1.528-.735 2.236a8.253 8.253 0 0 0-1.689-3.91c-1.594-2.033-3.523-2.815-4.86-3.114-1.453-.325-2.528-.166-2.573-.16a.438.438 0 0 0-.342.273c-.012.031-.302.78-.4 1.926-.05.563.823.638.871.076.056-.646.18-1.15.263-1.432a7.344 7.344 0 0 1 2.026.18c1.727.394 3.183 1.333 4.327 2.79 1.083 1.381 1.62 2.983 1.597 4.762a8.225 8.225 0 0 1-.154 1.473c-1.732-3.225-4.184-5.703-4.292-5.811-.398-.4-1.018.218-.62.618.026.026 2.554 2.582 4.228 5.773a7.651 7.651 0 0 1-1.468-.178c-1.714-.38-3.147-1.29-4.26-2.709a7.718 7.718 0 0 1-1.525-3.256c-.112-.553-.97-.38-.858.173a8.585 8.585 0 0 0 1.694 3.624c1.557 1.984 3.469 2.743 4.798 3.031a8.306 8.306 0 0 0 2.023.19v7.371a9.377 9.377 0 0 0-.425-.81 6.566 6.566 0 0 0-2.525-5.782c-3.039-2.395-6.203-1.18-6.337-1.127a.438.438 0 0 0-.27.342c-.022.14-.488 3.486 2.59 5.911a6.504 6.504 0 0 0 4.092 1.42c.759 0 1.381-.123 1.762-.224.61 1.065.97 2.24 1.078 3.517-2.266.038-4.38.298-6.29.776-.548.137-.335.986.212.849 1.852-.463 3.907-.714 6.113-.75v1.006c0 .565.876.565.876 0v-1.009c5.163.052 8.463 1.316 10.103 2.166H4.48c.426-.226.97-.483 1.642-.738.528-.2.216-1.02-.311-.818a14.21 14.21 0 0 0-2.326 1.115c-.933.568-.933.705-.933.879 0 .242.196.438.438.438h23.93c.666 0 .404-.7.073-.932Zm-7.06-12.157c1.847-1.277 3.6-.856 4.232-.635a4.767 4.767 0 0 1-2.096 3.75 4.593 4.593 0 0 1-4.002.645c.863-.807 1.913-1.478 3.144-2.005.52-.223.175-1.027-.344-.805a11.894 11.894 0 0 0-2.784 1.65 4.624 4.624 0 0 1 1.85-2.6Zm-3.303 2.342c.196 0 .405-.007.624-.023-.144.5-.2.94-.22 1.249a9.708 9.708 0 0 0-1.755 2.592v-3.93c.307.053.775.112 1.351.112Zm-.215-15.174c.733-2.127 2.394-2.831 3.034-3.029.38.56 1.25 2.163.526 4.265A4.603 4.603 0 0 1 17.57 7.92c.569-1.68 1.13-3.272 1.538-4.271.213-.523-.598-.854-.811-.33-.425 1.042-1.004 2.684-1.586 4.403-.398-.761-.86-2.126-.297-3.757ZM7.976 20.57c-1.116-.88-1.837-2-2.142-3.329a5.752 5.752 0 0 1-.145-1.503 5.88 5.88 0 0 1 5.221 1.081c1.085.856 1.784 1.958 2.077 3.276.043.192.073.374.095.544a10.23 10.23 0 0 0-.874-.929c-1.51-1.417-3.01-2.01-3.073-2.035-.526-.205-.844.611-.317.816.013.006 1.403.556 2.79 1.858.444.416.835.857 1.173 1.322-.97.198-2.964.35-4.805-1.101Z"/>
  </g>
  <path fill="#000" d="M36.62 22.942V5.86h12.825v17.082h-2.13V7.75h-8.541v15.192H36.62Zm28.123-6.436c0 1.07-.143 2.018-.43 2.848-.271.813-.67 1.507-1.197 2.081a4.988 4.988 0 0 1-1.89 1.316c-.733.287-1.555.43-2.464.43a6.256 6.256 0 0 1-2.345-.43 5.298 5.298 0 0 1-1.866-1.316c-.526-.574-.94-1.268-1.244-2.081-.287-.83-.43-1.779-.43-2.848 0-1.42.239-2.615.717-3.588.479-.99 1.165-1.739 2.058-2.25.893-.526 1.954-.789 3.182-.789 1.164 0 2.185.263 3.062.79.893.51 1.587 1.26 2.082 2.249.51.973.765 2.169.765 3.588Zm-9.69 0c0 1.005.128 1.883.384 2.632.27.734.685 1.3 1.244 1.699.558.399 1.268.598 2.129.598s1.571-.2 2.13-.598c.558-.399.964-.965 1.22-1.699.27-.75.406-1.627.406-2.632 0-1.02-.135-1.89-.407-2.607-.27-.718-.685-1.268-1.244-1.651-.542-.399-1.252-.598-2.129-.598-1.308 0-2.257.43-2.847 1.292-.59.86-.885 2.05-.885 3.564Zm22.31-6.388v11.054h1.866v6.22h-2.033v-4.45h-8.924v4.45h-2.01v-6.22h1.029c.733-1.021 1.34-2.13 1.818-3.326a19.062 19.062 0 0 0 1.1-3.78c.256-1.324.391-2.64.407-3.948h6.747Zm-4.88 1.651a20.077 20.077 0 0 1-.503 3.374 22.133 22.133 0 0 1-1.053 3.301c-.414 1.053-.9 1.962-1.46 2.728h5.863v-9.403h-2.847Zm20.17 4.737c0 1.07-.144 2.018-.43 2.848-.272.813-.67 1.507-1.197 2.081a4.987 4.987 0 0 1-1.89 1.316c-.734.287-1.555.43-2.465.43a6.256 6.256 0 0 1-2.344-.43 5.298 5.298 0 0 1-1.866-1.316c-.527-.574-.942-1.268-1.245-2.081-.287-.83-.43-1.779-.43-2.848 0-1.42.24-2.615.718-3.588.478-.99 1.164-1.739 2.057-2.25.893-.526 1.954-.789 3.182-.789 1.165 0 2.185.263 3.063.79.893.51 1.587 1.26 2.081 2.249.51.973.766 2.169.766 3.588Zm-9.69 0c0 1.005.128 1.883.383 2.632.271.734.686 1.3 1.244 1.699.558.399 1.268.598 2.13.598.86 0 1.57-.2 2.129-.598.558-.399.965-.965 1.22-1.699.271-.75.407-1.627.407-2.632 0-1.02-.136-1.89-.407-2.607-.271-.718-.686-1.268-1.244-1.651-.543-.399-1.252-.598-2.13-.598-1.308 0-2.257.43-2.847 1.292-.59.86-.885 2.05-.885 3.564Zm18.888-6.627c1.579 0 2.847.55 3.804 1.651.973 1.1 1.46 2.76 1.46 4.976 0 1.452-.223 2.68-.67 3.685-.431.989-1.045 1.739-1.842 2.249-.782.494-1.707.742-2.776.742-.654 0-1.236-.088-1.746-.264a4.853 4.853 0 0 1-1.316-.67 5.57 5.57 0 0 1-.91-.933h-.143c.032.272.064.614.096 1.03.032.414.048.773.048 1.076v5.263H95.75V10.118h1.723l.287 1.747h.096c.255-.367.558-.702.909-1.005a4.226 4.226 0 0 1 1.292-.718c.51-.175 1.108-.263 1.794-.263Zm-.383 1.77c-.861 0-1.555.168-2.081.503-.526.319-.91.806-1.148 1.46-.24.653-.367 1.483-.383 2.488v.406c0 1.053.111 1.946.335 2.68.223.734.598 1.292 1.124 1.675.543.383 1.276.574 2.201.574.782 0 1.42-.215 1.914-.646.511-.43.886-1.013 1.125-1.747.255-.75.383-1.603.383-2.56 0-1.467-.287-2.64-.862-3.516-.558-.878-1.427-1.316-2.608-1.316Zm19.912 4.857c0 1.07-.144 2.018-.431 2.848-.271.813-.67 1.507-1.196 2.081a4.981 4.981 0 0 1-1.89 1.316c-.734.287-1.555.43-2.464.43a6.256 6.256 0 0 1-2.345-.43 5.292 5.292 0 0 1-1.866-1.316c-.527-.574-.941-1.268-1.244-2.081-.287-.83-.431-1.779-.431-2.848 0-1.42.239-2.615.718-3.588.478-.99 1.164-1.739 2.057-2.25.893-.526 1.954-.789 3.182-.789 1.165 0 2.186.263 3.063.79.893.51 1.587 1.26 2.081 2.249.511.973.766 2.169.766 3.588Zm-9.69 0c0 1.005.128 1.883.383 2.632.271.734.686 1.3 1.244 1.699.558.399 1.268.598 2.129.598.862 0 1.572-.2 2.13-.598.558-.399.965-.965 1.22-1.699.271-.75.407-1.627.407-2.632 0-1.02-.136-1.89-.407-2.607-.271-.718-.686-1.268-1.244-1.651-.542-.399-1.252-.598-2.13-.598-1.307 0-2.256.43-2.847 1.292-.59.86-.885 2.05-.885 3.564Zm27.704-6.388-5.287 6.221 5.742 6.603h-2.393l-5.551-6.507v6.507h-1.961v-6.507l-5.551 6.507H122l5.743-6.603-5.288-6.22h2.297l5.192 6.22v-6.22h1.961v6.22l5.216-6.22h2.273Zm4.426 0v5.336h6.963v-5.336h2.105v12.824h-2.105v-5.718h-6.963v5.718h-2.105V10.118h2.105Zm14.875 7.824c0 .143-.008.35-.024.622 0 .255-.008.534-.024.837l-.048.838c-.016.255-.032.462-.047.622l6.866-10.743h2.584v12.824h-1.962v-8.565l.048-1.22c.016-.415.032-.726.048-.933l-6.819 10.718h-2.608V10.118h1.986v7.824Zm20.733-7.824h2.297l-5.479 6.173 5.934 6.651h-2.441l-5.79-6.507v6.507h-2.105V10.118h2.105v6.221l5.479-6.22Zm6.826 7.824c0 .143-.008.35-.024.622 0 .255-.008.534-.024.837l-.048.838c-.016.255-.032.462-.048.622l6.867-10.743h2.584v12.824h-1.962v-8.565l.048-1.22c.016-.415.032-.726.048-.933l-6.819 10.718h-2.608V10.118h1.986v7.824Z"/>
  <defs>
    <clipPath id="a">
      <path fill="#fff" d="M0 0h29.885v29.885H0z"/>
    </clipPath>
  </defs>
</svg>
