<svg xmlns="http://www.w3.org/2000/svg" aria-hidden="true" style="position:absolute;width:0;height:0;overflow:hidden">
  <defs>
    <symbol id="icon-favicon" viewBox="0 0 32 32">
      <path fill="#e8eeff" d="M0 0h32v32H0V0z" style="fill:var(--color1, #e8eeff)"/>
      <path fill="#f6cc90" d="M5 29c0-.019 3.276-3 11-3 7.503 0 11 2.981 11 3H5z" style="fill:var(--color2, #f6cc90)"/>
      <path fill="#f0c17f" d="M16.343 26c-.464 0-.912.012-1.343.033 6.368.325 9.349 2.949 9.349 2.967H27c0-.019-3.388-3-10.657-3z" style="fill:var(--color3, #f0c17f)"/>
      <path fill="#c5e866" d="M20.758 7.18C19.975 9.586 17.864 10 17.864 10s-1.399-1.773-.636-4.117C18.032 3.414 20.143 3 20.143 3s1.409 1.742.615 4.18z" style="fill:var(--color4, #c5e866)"/>
      <path fill="#b2d94b" d="M20.012 3s-.643.11-1.393.551c.412.699.924 2.01.317 3.628a4.378 4.378 0 0 1-1.935 2.272c.206.35.386.548.386.548s2.432-.414 3.335-2.82c.914-2.437-.709-4.18-.709-4.18z" style="fill:var(--color5, #b2d94b)"/>
      <path fill="#9cc042" d="M18.687 18.935c-1.466.184-2.545-.08-2.545-.08s-.933-3.306 1.983-5.888c3.072-2.72 6.727-1.825 6.727-1.825s.802 2.698-1.323 5.206z" style="fill:var(--color6, #9cc042)"/>
      <path fill="#85aa18" d="M24.856 11.141s-.952-.24-2.284-.094c.36.041.57.094.57.094s.779 2.698-1.285 5.206l-4.703 2.588a4.568 4.568 0 0 1-.154.018c.444.05 1.102.081 1.869-.018l4.703-2.588c2.063-2.508 1.285-5.206 1.285-5.206z" style="fill:var(--color7, #85aa18)"/>
      <path fill="#c5e866" d="M12.706 17.162c2.73 1.88 2.264 4.573 2.264 4.573s-2.947.985-5.606-.845c-2.801-1.928-2.335-4.622-2.335-4.622s2.912-1.01 5.677.894z" style="fill:var(--color4, #c5e866)"/>
      <path fill="#9cc042" d="M9.553 13.423c2.508 3.07 6.097 2.542 6.097 2.542s1.309-3.319-1.133-6.31c-2.573-3.15-6.162-2.622-6.162-2.622s-1.342 3.279 1.198 6.39z" style="fill:var(--color6, #9cc042)"/>
      <path fill="#c5e866" d="M22.759 21.034c-2.404 1.782-4.757.554-4.757.554s-.167-2.848 2.174-4.584c2.466-1.828 4.819-.6 4.819-.6s.198 2.825-2.237 4.63z" style="fill:var(--color4, #c5e866)"/>
      <path fill="#b2d94b" d="M24.996 16.403s-1.221-.64-2.824-.308c.585.119.944.308.944.308s.197 2.825-2.227 4.63a4.795 4.795 0 0 1-1.89.87c.904.185 2.327.204 3.769-.87 2.424-1.805 2.227-4.63 2.227-4.63z" style="fill:var(--color5, #b2d94b)"/>
      <path fill="#060606" d="M26.698 28.189c-.768-.531-1.645-.926-2.519-1.256-1.578-.595-4.203-1.301-7.84-1.341a7.559 7.559 0 0 1 .527-1.989 7.623 7.623 0 0 1 1.318-2.117 4.936 4.936 0 0 0 4.585-.537c2.362-1.6 2.2-4.07 2.192-4.175a.38.38 0 0 0-.217-.314 4.07 4.07 0 0 0-.903-.278 7.218 7.218 0 0 0 .947-2.157c.122-.477-.632-.661-.754-.185a6.482 6.482 0 0 1-1.065 2.245c-.841-.019-1.898.168-2.981.901a4.758 4.758 0 0 0-1.625 1.848 6.912 6.912 0 0 1-1.665.006c.79-1.044 2.848-3.573 5.165-4.895.433-.247.042-.906-.391-.658-2.255 1.286-4.217 3.574-5.163 4.79-.055-1.186.155-3.277 1.936-5.027 1.161-1.141 2.542-1.802 4.106-1.965a6.647 6.647 0 0 1 1.805.054c.035.199.077.52.084.923.009.487.786.481.777-.013-.014-.79-.149-1.304-.155-1.326a.384.384 0 0 0-.272-.27c-.039-.011-.971-.258-2.285-.128-1.21.12-2.992.598-4.61 2.188a7.467 7.467 0 0 0-.38.403c.218-.659.456-1.371.7-2.087.704-.21 2.442-.932 3.189-3.054.937-2.664-.682-4.56-.751-4.64a.393.393 0 0 0-.366-.127c-.104.019-2.563.494-3.512 3.194-.788 2.241.335 3.993.678 4.455-.227.667-.448 1.328-.652 1.945a7.115 7.115 0 0 0-1.499-3.403c-1.415-1.768-3.127-2.448-4.315-2.708-1.29-.282-2.245-.145-2.285-.139a.389.389 0 0 0-.303.237c-.011.027-.268.678-.356 1.676-.043.489.731.555.774.066.05-.562.159-1.001.233-1.246a6.676 6.676 0 0 1 1.798.156c1.533.343 2.826 1.16 3.841 2.428a6.326 6.326 0 0 1 1.418 4.142 7.032 7.032 0 0 1-.137 1.282c-1.537-2.806-3.714-4.962-3.81-5.056-.354-.348-.904.19-.55.538.023.023 2.267 2.246 3.753 5.022a6.898 6.898 0 0 1-1.303-.155c-1.522-.33-2.794-1.123-3.782-2.356a6.662 6.662 0 0 1-1.354-2.833c-.099-.482-.861-.331-.762.151a7.417 7.417 0 0 0 1.504 3.153 7.36 7.36 0 0 0 4.259 2.637 7.522 7.522 0 0 0 1.796.165v6.413a8.062 8.062 0 0 0-.377-.704c.053-.451.245-3.11-2.242-5.03-2.698-2.084-5.507-1.027-5.625-.981a.384.384 0 0 0-.241.297c-.019.123-.432 3.033 2.299 5.143a5.853 5.853 0 0 0 3.633 1.236c.674 0 1.226-.108 1.564-.195.541.926.861 1.948.957 3.059-2.011.033-3.888.26-5.584.675-.486.119-.298.858.188.739 1.644-.403 3.468-.622 5.427-.653v.875c0 .491.777.491.777 0v-.878c4.583.045 7.513 1.144 8.969 1.884H6.71c.378-.197.861-.42 1.457-.642.469-.175.192-.887-.276-.712-.968.361-1.657.727-2.065.97-.828.494-.828.614-.828.765 0 .21.174.381.389.381h21.245c.591 0 .358-.608.065-.811zm-6.269-10.576c1.64-1.111 3.197-.745 3.757-.552a4.125 4.125 0 0 1-1.86 3.262 4.148 4.148 0 0 1-3.552.562c.766-.703 1.698-1.286 2.791-1.745.461-.194.155-.894-.306-.7-.987.414-1.8.907-2.471 1.436a4.021 4.021 0 0 1 1.642-2.262zm-2.931 2.037c.174 0 .36-.006.554-.02a5.084 5.084 0 0 0-.195 1.087 8.411 8.411 0 0 0-1.558 2.255v-3.419c.273.046.688.097 1.2.097zm-.191-13.201A4.136 4.136 0 0 1 20 3.814a4.086 4.086 0 0 1 .467 3.711 4.038 4.038 0 0 1-2.133 2.365c.505-1.462 1.003-2.846 1.365-3.716.189-.455-.53-.743-.72-.288-.377.907-.892 2.336-1.408 3.832-.353-.663-.764-1.85-.265-3.269zM9.816 20.897c-.991-.765-1.631-1.74-1.902-2.896a4.87 4.87 0 0 1-.128-1.308c.662-.182 2.694-.558 4.635.941.964.744 1.584 1.703 1.844 2.85.038.167.065.326.084.474a8.905 8.905 0 0 0-.776-.808c-1.341-1.233-2.671-1.749-2.728-1.77-.467-.178-.749.532-.282.71.012.005 1.246.483 2.478 1.616.394.362.74.746 1.041 1.15-.861.172-2.632.304-4.266-.958z" style="fill:var(--color8, #060606)"/>
    </symbol>
    <symbol id="icon-arrow-forward" viewBox="0 0 32 32">
      <path stroke-width="1.333" d="M15.993 6.253a.432.432 0 0 1 .259.081l.082.07 9.264 9.264a.542.542 0 0 1 .121.167v.001c.02.048.031.102.031.165s-.012.116-.031.163v.001a.567.567 0 0 1-.121.167l-9.272 9.264c-.122.12-.227.155-.337.155-.108 0-.204-.033-.315-.147l-.007-.007-.069-.081c-.056-.079-.075-.157-.075-.243s.02-.163.075-.242l.069-.081 8.482-8.482H6.269c-.163 0-.259-.047-.34-.128h-.001a.44.44 0 0 1-.128-.341c0-.162.046-.26.128-.341h.001c.081-.081.177-.127.34-.128h17.88l-8.474-8.474a.467.467 0 0 1-.141-.246l-.008-.09a.423.423 0 0 1 .141-.326l.001-.001a.42.42 0 0 1 .324-.142z"/>
    </symbol>
    <symbol id="icon-arrow-back" viewBox="0 0 32 32">
      <path stroke-width="1.333" d="M16.01 6.249c.114 0 .212.035.322.145a.45.45 0 0 1 .145.332.425.425 0 0 1-.145.324L7.85 15.532h17.88a.451.451 0 0 1 .477.469c0 .16-.046.255-.129.337a.457.457 0 0 1-.348.132H7.85l8.474 8.473c.11.11.147.212.148.335v.001a.4.4 0 0 1-.074.246l-.069.082a.415.415 0 0 1-.323.142.457.457 0 0 1-.341-.151l-9.264-9.264a.542.542 0 0 1-.121-.167v-.001c-.02-.048-.031-.102-.031-.165s.012-.116.031-.163v-.001a.554.554 0 0 1 .121-.167l9.267-9.267a.466.466 0 0 1 .342-.152z"/>
    </symbol>
    <symbol id="icon-edit" viewBox="0 0 32 32">
      <path d="M6.064 25.928h1.475l15.327-15.294-1.459-1.467L6.064 24.469v1.459zm-1.128 2.271a1.102 1.102 0 0 1-1.135-1.135v-2.561c0-.304.062-.601.187-.891s.289-.537.493-.742L22.952 4.424c.183-.188.404-.335.661-.441s.525-.158.803-.158c.255 0 .51.053.765.158s.491.25.707.433l1.73 1.706c.205.216.355.453.449.711s.141.517.141.777-.053.524-.158.79-.25.494-.433.682L9.146 27.52c-.21.204-.458.369-.746.493s-.583.187-.887.187H4.936zM22.14 9.893l-.733-.725 1.459 1.467-.725-.741z"/>
    </symbol>
    <symbol id="icon-menu" viewBox="0 0 32 32">
      <path d="M4.936 24.295c-.321 0-.59-.11-.808-.329s-.327-.493-.327-.82c0-.322.109-.591.327-.807s.488-.323.808-.323h22.127c.321 0 .591.11.812.329s.331.49.331.812a1.121 1.121 0 0 1-1.143 1.137H4.936zm0-7.159c-.321 0-.59-.11-.808-.329s-.327-.49-.327-.812c0-.322.109-.591.327-.806s.488-.323.808-.323h22.127c.321 0 .591.11.812.329s.331.49.331.812c0 .322-.11.591-.331.806s-.492.323-.812.323H4.936zm0-7.152c-.321 0-.59-.11-.808-.329s-.327-.493-.327-.82c0-.322.109-.591.327-.806s.488-.323.808-.323h22.127c.321 0 .591.11.812.329s.331.49.331.812a1.117 1.117 0 0 1-1.143 1.138H4.936z"/>
    </symbol>
    <symbol id="icon-logout" viewBox="0 0 32 32">
      <path d="M6.072 28.199c-.613 0-1.145-.225-1.595-.676s-.676-.982-.676-1.595V6.071c0-.616.225-1.149.676-1.601s.982-.678 1.595-.678h8.807c.321 0 .59.111.808.334s.327.495.327.816c0 .322-.109.59-.327.806s-.487.323-.808.323H6.072v19.857h8.807c.321 0 .59.11.808.329s.327.49.327.812c0 .322-.109.591-.327.806s-.487.323-.808.323H6.072zm17.784-11.063H13.088c-.32 0-.59-.11-.808-.329s-.327-.49-.327-.812c0-.322.109-.591.327-.806s.488-.323.808-.323h10.701l-2.564-2.564c-.227-.228-.334-.495-.323-.8s.13-.571.357-.795c.226-.229.496-.342.81-.34s.585.117.815.344l4.529 4.529c.221.229.332.494.332.797s-.111.568-.332.794l-4.496 4.496c-.222.226-.486.335-.792.327s-.577-.126-.812-.352c-.218-.227-.328-.497-.331-.811s.112-.586.344-.813l2.531-2.539z"/>
    </symbol>
    <symbol id="icon-close" viewBox="0 0 32 32">
      <path stroke-width="1.333" d="M23.466 7.9c.219 0 .355.065.462.172s.172.242.172.461c0 .219-.065.355-.172.462L16.923 16l7.005 7.004c.107.107.172.243.172.462s-.065.355-.172.462-.243.172-.462.172c-.219 0-.355-.065-.462-.172L16 16.923l-7.005 7.005c-.107.107-.243.172-.462.172s-.354-.065-.461-.172c-.107-.107-.172-.243-.172-.462s.065-.355.172-.462L15.076 16 8.072 8.995c-.107-.107-.172-.243-.172-.462s.065-.354.172-.461.242-.172.461-.172c.219 0 .355.065.462.172L16 15.076l7.004-7.004c.107-.107.243-.172.462-.172z"/>
    </symbol>
    <symbol id="icon-bookmark" viewBox="0 0 32 32">
      <path d="m16 24.223-6.358 2.72c-.757.326-1.475.265-2.155-.184s-1.02-1.083-1.02-1.905V5.904c0-.616.225-1.149.676-1.601s.982-.678 1.595-.678h14.523c.616 0 1.149.226 1.601.678s.678.985.678 1.601v18.95c0 .821-.341 1.456-1.024 1.905s-1.402.51-2.159.184l-6.358-2.72zm0-2.429 7.262 3.061V5.905H8.739v18.95l7.262-3.061zm0-15.889z"/>
    </symbol>
    <symbol id="icon-communication" viewBox="0 0 32 32">
      <path d="M1.15 21.271v-.569c0-1.243.618-2.059 1.853-2.45s2.329-.586 3.283-.586c.954 0 2.048.195 3.283.584s1.853 1.207 1.853 2.451v.569H1.151zm5.134-5.39c-.725 0-1.345-.259-1.861-.776s-.773-1.14-.773-1.866.258-1.348.775-1.863c.516-.515 1.137-.773 1.862-.773s1.345.259 1.861.776.773 1.139.773 1.864-.258 1.346-.775 1.864a2.537 2.537 0 0 1-1.862.776zm6.96 1.999c-.255 0-.466-.08-.632-.24s-.249-.365-.249-.616c0-.125.083-.342.249-.65.172-.244.309-.5.409-.767s.15-.545.15-.834c0-.289-.05-.575-.15-.858s-.237-.532-.411-.749c-.072-.097-.131-.198-.177-.303s-.069-.216-.069-.333c0-.254.083-.464.25-.629s.377-.248.631-.248c.112 0 .228.018.346.054s.211.098.278.187c.388.405.673.856.853 1.353s.271 1.006.271 1.526c0 .516-.097 1.035-.291 1.556s-.48.968-.856 1.34c-.089.089-.182.146-.278.171s-.204.038-.322.038zm2.539 2.535c-.26 0-.471-.084-.633-.251s-.243-.379-.243-.635c0-.118.022-.228.065-.33s.101-.201.173-.296c.546-.639.951-1.307 1.215-2.005s.395-1.405.395-2.125-.132-1.434-.395-2.144a6.393 6.393 0 0 0-1.216-1.998c-.071-.095-.129-.192-.172-.291s-.065-.211-.065-.335c0-.258.083-.469.25-.633s.377-.246.632-.246c.13 0 .252.03.363.091s.214.141.308.242c.695.8 1.215 1.649 1.558 2.547s.516 1.819.516 2.764c0 .945-.172 1.866-.516 2.764s-.863 1.747-1.558 2.547c-.087.111-.187.194-.299.25s-.238.083-.378.083zm4.796.856v-.569c0-1.244.617-2.061 1.853-2.451s2.329-.584 3.283-.584c.954 0 2.048.195 3.283.586s1.853 1.207 1.853 2.45v.569H20.58zm5.134-5.39c-.725 0-1.345-.259-1.861-.776s-.773-1.14-.773-1.866.258-1.348.775-1.863c.516-.515 1.137-.773 1.862-.773s1.345.259 1.861.776.773 1.139.773 1.864-.258 1.346-.775 1.864a2.537 2.537 0 0 1-1.862.776z"/>
    </symbol>
    <symbol id="icon-wand-stars" viewBox="0 0 32 32">
      <path d="m21.848 16.962-3.113 5.02c-.178.294-.429.408-.754.341s-.532-.258-.621-.575l-1.092-4.41-10.08 10.031c-.227.232-.492.348-.796.348s-.569-.116-.796-.348c-.226-.227-.34-.492-.34-.796s.113-.569.34-.796l10.047-10.039-4.425-1.092c-.316-.089-.507-.296-.571-.62s.048-.579.337-.762l5.02-3.146-.408-5.869c-.022-.339.118-.586.421-.741s.579-.122.829.1l4.504 3.788 5.461-2.189c.311-.111.58-.053.808.175s.286.497.175.808l-2.222 5.461 3.788 4.512c.222.25.261.526.117.829s-.386.443-.725.421l-5.902-.449zM4.215 7.999c-.122-.116-.183-.253-.183-.411s.061-.297.183-.418l1.629-1.629c.116-.116.253-.175.41-.175s.297.058.419.175l1.588 1.596c.122.122.182.26.182.414s-.061.293-.182.415L6.632 9.595c-.122.122-.26.182-.415.182s-.293-.061-.414-.182L4.215 7.999zm14.434 10.05 2.052-3.304 3.896.292-2.536-2.987 1.468-3.604-3.604 1.46L16.93 7.37l.3 3.896-3.312 2.077 3.796.943.935 3.763zm5.386 9.736-1.629-1.621c-.122-.122-.177-.26-.166-.414s.077-.293.199-.415l1.596-1.588c.116-.122.253-.183.411-.183s.297.061.418.183l1.629 1.621c.116.122.169.26.158.415s-.075.293-.191.414l-1.596 1.588c-.122.122-.26.183-.414.183s-.293-.061-.415-.183z"/>
    </symbol>
    <symbol id="icon-travel-luggage-and-bags" viewBox="0 0 32 32">
      <path d="M6.467 25.762v-15.69c0-.632.221-1.17.663-1.614s.978-.665 1.608-.665h3.341V3.587c0-.325.119-.608.358-.851s.521-.364.846-.364h5.435c.325 0 .607.121.846.364s.358.526.358.851v4.206h3.341c.632 0 1.17.222 1.614.665s.665.981.665 1.614v15.69c0 .63-.222 1.166-.665 1.608s-.981.663-1.614.663v.548c0 .297-.099.546-.298.747s-.448.301-.75.301c-.305 0-.566-.093-.784-.279s-.306-.442-.263-.769v-.548H10.836v.548c0 .297-.099.546-.298.747s-.449.301-.75.301c-.305 0-.566-.093-.785-.279s-.306-.442-.263-.769v-.548c-.63 0-1.166-.221-1.608-.663s-.663-.978-.663-1.608zm7.7-17.969h3.667V4.46h-3.667v3.333zM16 15.778c1.276 0 2.536-.142 3.779-.425s2.404-.763 3.482-1.436v-3.844H8.738v3.846c1.078.673 2.239 1.151 3.483 1.435s2.503.425 3.779.425zm-1.048 2.651v-.43c-1.112-.067-2.191-.246-3.236-.538s-2.038-.722-2.978-1.289v9.59h14.523v-9.598c-.939.567-1.932.997-2.978 1.289s-2.124.474-3.236.546v.43c0 .297-.1.546-.299.747s-.451.301-.754.301-.552-.099-.748-.298-.294-.449-.294-.75z"/>
    </symbol>
    <symbol id="icon-keyboard-arrow-down" viewBox="0 0 32 32">
      <path stroke-width="1.333" d="M9.449 12.031c.134 0 .237.041.341.145l6.208 6.244 6.243-6.244c.104-.103.192-.133.299-.129a.491.491 0 0 1 .349.163c.104.104.145.207.145.341s-.041.236-.145.34L16.33 19.45a.527.527 0 0 1-.167.122.415.415 0 0 1-.165.031.499.499 0 0 1-.09-.009l-.077-.022-.07-.04a.681.681 0 0 1-.095-.082l-6.592-6.591a.392.392 0 0 1-.129-.318.507.507 0 0 1 .163-.365.447.447 0 0 1 .34-.145z"/>
    </symbol>
    <symbol id="icon-keyboard-arrow-up" viewBox="0 0 32 32">
      <path stroke-width="1.333" d="M16 11.605c.125 0 .227.038.333.145l6.591 6.592c.109.109.145.208.145.324s-.035.215-.145.324c-.104.104-.207.145-.341.145s-.236-.041-.34-.145l-.001-.001-6.243-6.207-6.241 6.241c-.104.104-.192.133-.299.129a.493.493 0 0 1-.349-.161c-.104-.104-.145-.207-.145-.341s.04-.237.145-.341l6.559-6.559a.438.438 0 0 1 .332-.145z"/>
    </symbol>
    <symbol id="icon-chevron-right" viewBox="0 0 32 32">
      <path stroke-width="1.333" d="M12.516 8.897c.134 0 .237.041.341.145l6.592 6.592a.547.547 0 0 1 .121.165v.001c.02.047.031.1.031.165s-.012.118-.031.165v.001a.547.547 0 0 1-.121.165l-6.625 6.625c-.104.104-.193.133-.301.129a.492.492 0 0 1-.348-.161c-.104-.104-.146-.207-.146-.341s.042-.237.146-.341l6.242-6.242-6.276-6.276c-.104-.104-.133-.192-.129-.299a.491.491 0 0 1 .163-.349.447.447 0 0 1 .34-.145z"/>
    </symbol>
    <symbol id="icon-chevron-left" viewBox="0 0 32 32">
      <path stroke-width="1.333" d="M18.716 8.865c.134 0 .237.041.341.145s.145.207.145.341-.04.237-.145.341l-6.276 6.276 6.276 6.275c.104.104.133.193.129.301a.492.492 0 0 1-.161.348c-.104.104-.207.146-.341.146s-.237-.042-.341-.146l-6.592-6.591a.743.743 0 0 1-.082-.096l-.039-.07a.415.415 0 0 1-.031-.165c0-.032.002-.063.008-.09l.023-.077a.548.548 0 0 1 .121-.167l6.626-6.625a.447.447 0 0 1 .34-.145z"/>
    </symbol>
    <symbol id="icon-youtube" viewBox="0 0 32 32">
      <path d="M28.791 9.604a3.345 3.345 0 0 0-2.35-2.354C24.353 6.677 16 6.667 16 6.667s-8.352-.009-10.441.539a3.416 3.416 0 0 0-2.354 2.371c-.551 2.088-.556 6.419-.556 6.419s-.005 4.352.541 6.419a3.341 3.341 0 0 0 2.351 2.353c2.109.573 10.44.583 10.44.583s8.353.009 10.441-.537a3.356 3.356 0 0 0 2.356-2.35c.552-2.087.556-6.416.556-6.416s.027-4.353-.543-6.441zM13.328 20.007l.007-8 6.943 4.007-6.949 3.993z"/>
    </symbol>
    <symbol id="icon-x" viewBox="0 0 32 32">
      <path d="M22.901 5.657h3.68l-8.04 9.037L28 26.991h-7.406l-5.801-7.458-6.637 7.458H4.474l8.6-9.666L4 5.657h7.594l5.243 6.817 6.064-6.817zM21.61 24.824h2.039L10.486 7.709H8.298L21.61 24.824z"/>
    </symbol>
    <symbol id="icon-instagram" viewBox="0 0 32 32">
      <path d="M16.006 6.488c3.206 0 3.585.014 4.846.071 1.172.052 1.804.248 2.227.412.558.216.961.478 1.378.895.422.422.679.82.9 1.378.164.422.361 1.059.412 2.226.056 1.266.071 1.645.071 4.847s-.014 3.585-.071 4.847c-.052 1.172-.248 1.804-.412 2.227a3.702 3.702 0 0 1-.895 1.377c-.422.422-.82.679-1.377.9-.422.164-1.06.361-2.227.413-1.266.056-1.645.07-4.847.07s-3.585-.014-4.847-.07c-1.172-.052-1.804-.248-2.226-.413a3.714 3.714 0 0 1-1.378-.895 3.767 3.767 0 0 1-.9-1.378c-.164-.422-.361-1.06-.412-2.226-.056-1.266-.071-1.645-.071-4.847s.014-3.585.071-4.847c.052-1.172.248-1.804.412-2.226.216-.558.478-.961.895-1.378.422-.422.82-.679 1.378-.9.422-.164 1.059-.361 2.226-.412 1.261-.056 1.641-.071 4.847-.071h.001zm0-2.16c-3.258 0-3.665.014-4.945.071-1.275.056-2.151.262-2.91.558a5.847 5.847 0 0 0-2.127 1.387 5.883 5.883 0 0 0-1.387 2.123c-.295.764-.502 1.636-.558 2.91-.056 1.285-.071 1.692-.071 4.949s.014 3.665.071 4.945c.056 1.275.262 2.151.558 2.91a5.86 5.86 0 0 0 1.387 2.127 5.876 5.876 0 0 0 2.123 1.383c.764.295 1.636.502 2.91.558 1.279.056 1.687.071 4.945.071s3.665-.014 4.945-.071c1.275-.056 2.151-.262 2.91-.558.787-.305 1.458-.717 2.123-1.383s1.078-1.335 1.383-2.123c.295-.764.502-1.635.558-2.91.056-1.279.07-1.687.07-4.945s-.014-3.665-.07-4.945c-.056-1.275-.263-2.151-.558-2.91a5.622 5.622 0 0 0-1.373-2.133 5.876 5.876 0 0 0-2.123-1.383c-.764-.295-1.636-.502-2.91-.558-1.284-.061-1.692-.075-4.949-.075l-.001.001z"/>
      <path d="M16.006 10.163a6.164 6.164 0 1 0 6.163 6.163 6.165 6.165 0 0 0-6.163-6.163zm0 10.161a3.998 3.998 0 1 1 0-7.996 3.998 3.998 0 0 1 0 7.996zM23.851 9.919a1.439 1.439 0 1 1-2.877 0 1.439 1.439 0 0 1 2.877 0z"/>
    </symbol>
    <symbol id="icon-facebook" viewBox="0 0 32 32">
      <path d="M29.333 16.405C29.333 8.996 23.364 2.99 16 2.99S2.667 8.996 2.667 16.405c0 6.696 4.876 12.245 11.25 13.252v-9.374h-3.385v-3.878h3.385V13.45c0-3.362 1.991-5.219 5.036-5.219 1.459 0 2.985.262 2.985.262v3.301h-1.681c-1.656 0-2.173 1.034-2.173 2.095v2.516h3.698l-.591 3.878h-3.107v9.374c6.374-1.006 11.25-6.556 11.25-13.252z"/>
    </symbol>
  </defs>
</svg>